{
	"asset":{
		"generator":"Khronos glTF Blender I/O v3.6.28",
		"version":"2.0"
	},
	"extensionsUsed":[
		"KHR_lights_punctual",
		"KHR_materials_specular",
		"KHR_materials_ior"
	],
	"extensionsRequired":[
		"KHR_lights_punctual"
	],
	"extensions":{
		"KHR_lights_punctual":{
			"lights":[
				{
					"color":[
						1,
						1,
						1
					],
					"intensity":52291.49318374653,
					"type":"point",
					"name":"Light"
				},
				{
					"color":[
						1,
						1,
						1
					],
					"intensity":52291.49318374653,
					"type":"point",
					"name":"Light.001"
				}
			]
		}
	},
	"scene":0,
	"scenes":[
		{
			"extras":{
				"rsn_bind_tree":{}
			},
			"name":"Scene",
			"nodes":[
				0,
				1,
				2,
				3,
				4,
				5,
				6,
				7,
				8
			]
		}
	],
	"nodes":[
		{
			"extensions":{
				"KHR_lights_punctual":{
					"light":0
				}
			},
			"name":"Light",
			"rotation":[
				0.09269260615110397,
				0.6229367256164551,
				0.5296198725700378,
				0.5682083964347839
			],
			"translation":[
				-1.3617017269134521,
				4.173862457275391,
				0.2905849814414978
			]
		},
		{
			"mesh":0,
			"name":"BezierCurve.003",
			"rotation":[
				0,
				0.7071068286895752,
				-0.7071068286895752,
				3.090862321641907e-08
			],
			"scale":[
				0.020273666828870773,
				0.020273596048355103,
				0.020273666828870773
			],
			"translation":[
				-0.028255581855773926,
				0.755835771560669,
				1.3618309497833252
			]
		},
		{
			"mesh":1,
			"name":"BezierCurve.004",
			"rotation":[
				0.5,
				0.4999999701976776,
				-0.5,
				0.5000000596046448
			],
			"scale":[
				0.021303897723555565,
				0.021303825080394745,
				0.021303903311491013
			],
			"translation":[
				-8.091676712036133,
				3.6181893348693848,
				-2.266195297241211
			]
		},
		{
			"mesh":2,
			"name":"Cube.001",
			"scale":[
				1.559999942779541,
				0.8700000047683716,
				0.0036368966102600098
			],
			"translation":[
				-1.9641458988189697,
				3.3900532722473145,
				12.715270042419434
			]
		},
		{
			"mesh":3,
			"name":"Cube.002",
			"scale":[
				1.2400002479553223,
				0.89000004529953,
				4.380000114440918
			],
			"translation":[
				-1.4308254718780518,
				7.418157577514648,
				8.784330368041992
			]
		},
		{
			"mesh":4,
			"name":"Cube.003",
			"rotation":[
				1,
				0,
				0,
				0
			],
			"scale":[
				-0.17000000178813934,
				-1.5799999237060547,
				-3.009999990463257
			],
			"translation":[
				4.591700077056885,
				2.998800039291382,
				-6.661940097808838
			]
		},
		{
			"mesh":5,
			"name":"Cube.004",
			"scale":[
				1.8199999332427979,
				7.480000019073486,
				4.25
			],
			"translation":[
				-2.1667368412017822,
				0.0436791256070137,
				-1.1423535346984863
			]
		},
		{
			"mesh":6,
			"name":"Cube.005",
			"rotation":[
				1,
				0,
				0,
				0
			],
			"scale":[
				-0.17000000178813934,
				-1.5799999237060547,
				-3.009999990463257
			],
			"translation":[
				-8.672637939453125,
				2.998800039291382,
				-6.661940097808838
			]
		},
		{
			"extensions":{
				"KHR_lights_punctual":{
					"light":1
				}
			},
			"name":"Light.001",
			"rotation":[
				0.09269260615110397,
				0.6229367256164551,
				0.5296198725700378,
				0.5682083964347839
			],
			"translation":[
				-1.3617017269134521,
				4.163862228393555,
				-23.909414291381836
			]
		}
	],
	"materials":[
		{
			"doubleSided":true,
			"extensions":{
				"KHR_materials_specular":{
					"specularColorFactor":[
						1.1668585804871277,
						1.1668585804871277,
						1.1668585804871277
					]
				},
				"KHR_materials_ior":{
					"ior":1.4500000476837158
				}
			},
			"name":"Frame",
			"pbrMetallicRoughness":{
				"baseColorFactor":[
					0.16082626581192017,
					0.1582680344581604,
					0.17335379123687744,
					1
				],
				"roughnessFactor":0.4444444179534912
			}
		},
		{
			"extensions":{
				"KHR_materials_specular":{
					"specularColorFactor":[
						0,
						0,
						0
					]
				},
				"KHR_materials_ior":{
					"ior":3.4499998092651367
				}
			},
			"name":"Photo.001",
			"pbrMetallicRoughness":{
				"baseColorTexture":{
					"index":0
				},
				"metallicFactor":0,
				"roughnessFactor":0
			}
		}
	],
	"meshes":[
		{
			"name":"Mesh.001",
			"primitives":[
				{
					"attributes":{
						"POSITION":0,
						"NORMAL":1,
						"TEXCOORD_0":2
					},
					"indices":3,
					"material":0
				},
				{
					"attributes":{
						"POSITION":4,
						"NORMAL":5,
						"TEXCOORD_0":6
					},
					"indices":7,
					"material":1
				}
			]
		},
		{
			"name":"Mesh.004",
			"primitives":[
				{
					"attributes":{
						"POSITION":8,
						"NORMAL":9,
						"TEXCOORD_0":10
					},
					"indices":3,
					"material":0
				},
				{
					"attributes":{
						"POSITION":11,
						"NORMAL":12,
						"TEXCOORD_0":13
					},
					"indices":7,
					"material":1
				}
			]
		},
		{
			"name":"Cube",
			"primitives":[
				{
					"attributes":{
						"POSITION":14,
						"NORMAL":15,
						"TEXCOORD_0":16
					},
					"indices":17
				}
			]
		},
		{
			"name":"Cube.001",
			"primitives":[
				{
					"attributes":{
						"POSITION":18,
						"NORMAL":19,
						"TEXCOORD_0":20
					},
					"indices":21
				}
			]
		},
		{
			"name":"Cube.002",
			"primitives":[
				{
					"attributes":{
						"POSITION":22,
						"NORMAL":23,
						"TEXCOORD_0":24
					},
					"indices":21
				}
			]
		},
		{
			"name":"Cube.003",
			"primitives":[
				{
					"attributes":{
						"POSITION":25,
						"NORMAL":26,
						"TEXCOORD_0":27
					},
					"indices":21
				}
			]
		},
		{
			"name":"Cube.005",
			"primitives":[
				{
					"attributes":{
						"POSITION":28,
						"NORMAL":29,
						"TEXCOORD_0":30
					},
					"indices":21
				}
			]
		}
	],
	"textures":[
		{
			"sampler":0,
			"source":0
		}
	],
	"images":[
		{
			"bufferView":8,
			"mimeType":"image/png",
			"name":"000049"
		}
	],
	"accessors":[
		{
			"bufferView":0,
			"componentType":5126,
			"count":1515,
			"max":[
				104.30105590820312,
				3.3433914184570312,
				20.526790618896484
			],
			"min":[
				-18.801101684570312,
				-0.13768474757671356,
				-63.074951171875
			],
			"type":"VEC3"
		},
		{
			"bufferView":1,
			"componentType":5126,
			"count":1515,
			"type":"VEC3"
		},
		{
			"bufferView":2,
			"componentType":5126,
			"count":1515,
			"type":"VEC2"
		},
		{
			"bufferView":3,
			"componentType":5123,
			"count":9018,
			"type":"SCALAR"
		},
		{
			"bufferView":4,
			"componentType":5126,
			"count":12,
			"max":[
				99.67707061767578,
				1.6974440813064575,
				16.596309661865234
			],
			"min":[
				-14.168673515319824,
				1.6974440813064575,
				-59.05870056152344
			],
			"type":"VEC3"
		},
		{
			"bufferView":5,
			"componentType":5126,
			"count":12,
			"type":"VEC3"
		},
		{
			"bufferView":6,
			"componentType":5126,
			"count":12,
			"type":"VEC2"
		},
		{
			"bufferView":7,
			"componentType":5123,
			"count":18,
			"type":"SCALAR"
		},
		{
			"bufferView":9,
			"componentType":5126,
			"count":1515,
			"max":[
				104.30105590820312,
				3.3433914184570312,
				20.526790618896484
			],
			"min":[
				-18.801101684570312,
				-0.13768474757671356,
				-63.074951171875
			],
			"type":"VEC3"
		},
		{
			"bufferView":10,
			"componentType":5126,
			"count":1515,
			"type":"VEC3"
		},
		{
			"bufferView":11,
			"componentType":5126,
			"count":1515,
			"type":"VEC2"
		},
		{
			"bufferView":12,
			"componentType":5126,
			"count":12,
			"max":[
				99.67707061767578,
				1.6974440813064575,
				16.596309661865234
			],
			"min":[
				-14.168673515319824,
				1.6974440813064575,
				-59.05870056152344
			],
			"type":"VEC3"
		},
		{
			"bufferView":13,
			"componentType":5126,
			"count":12,
			"type":"VEC3"
		},
		{
			"bufferView":14,
			"componentType":5126,
			"count":12,
			"type":"VEC2"
		},
		{
			"bufferView":15,
			"componentType":5126,
			"count":24,
			"max":[
				4.508522033691406,
				4.9972991943359375,
				17.243310928344727
			],
			"min":[
				-4.621619701385498,
				-3.8747847080230713,
				-16.95050048828125
			],
			"type":"VEC3"
		},
		{
			"bufferView":16,
			"componentType":5126,
			"count":24,
			"type":"VEC3"
		},
		{
			"bufferView":17,
			"componentType":5126,
			"count":24,
			"type":"VEC2"
		},
		{
			"bufferView":18,
			"componentType":5123,
			"count":36,
			"type":"SCALAR"
		},
		{
			"bufferView":19,
			"componentType":5126,
			"count":24,
			"max":[
				5.222457408905029,
				0.35740044713020325,
				0.886146068572998
			],
			"min":[
				-6.245429992675781,
				-0.32958507537841797,
				-7.937618255615234
			],
			"type":"VEC3"
		},
		{
			"bufferView":20,
			"componentType":5126,
			"count":24,
			"type":"VEC3"
		},
		{
			"bufferView":21,
			"componentType":5126,
			"count":24,
			"type":"VEC2"
		},
		{
			"bufferView":22,
			"componentType":5123,
			"count":36,
			"type":"SCALAR"
		},
		{
			"bufferView":23,
			"componentType":5126,
			"count":24,
			"max":[
				2.8157856464385986,
				2.9989051818847656,
				6.423397541046143
			],
			"min":[
				-2.8157856464385986,
				-1.8516737222671509,
				-6.423397541046143
			],
			"type":"VEC3"
		},
		{
			"bufferView":24,
			"componentType":5126,
			"count":24,
			"type":"VEC3"
		},
		{
			"bufferView":25,
			"componentType":5126,
			"count":24,
			"type":"VEC2"
		},
		{
			"bufferView":26,
			"componentType":5126,
			"count":24,
			"max":[
				3.972562789916992,
				0.03152787685394287,
				3.2544379234313965
			],
			"min":[
				-3.8462295532226562,
				-0.03152787685394287,
				-5.846645832061768
			],
			"type":"VEC3"
		},
		{
			"bufferView":27,
			"componentType":5126,
			"count":24,
			"type":"VEC3"
		},
		{
			"bufferView":28,
			"componentType":5126,
			"count":24,
			"type":"VEC2"
		},
		{
			"bufferView":29,
			"componentType":5126,
			"count":24,
			"max":[
				2.930192708969116,
				2.9989051818847656,
				6.423397541046143
			],
			"min":[
				-2.8157856464385986,
				-1.8516737222671509,
				-6.423397541046143
			],
			"type":"VEC3"
		},
		{
			"bufferView":30,
			"componentType":5126,
			"count":24,
			"type":"VEC3"
		},
		{
			"bufferView":31,
			"componentType":5126,
			"count":24,
			"type":"VEC2"
		}
	],
	"bufferViews":[
		{
			"buffer":0,
			"byteLength":18180,
			"byteOffset":0,
			"target":34962
		},
		{
			"buffer":0,
			"byteLength":18180,
			"byteOffset":18180,
			"target":34962
		},
		{
			"buffer":0,
			"byteLength":12120,
			"byteOffset":36360,
			"target":34962
		},
		{
			"buffer":0,
			"byteLength":18036,
			"byteOffset":48480,
			"target":34963
		},
		{
			"buffer":0,
			"byteLength":144,
			"byteOffset":66516,
			"target":34962
		},
		{
			"buffer":0,
			"byteLength":144,
			"byteOffset":66660,
			"target":34962
		},
		{
			"buffer":0,
			"byteLength":96,
			"byteOffset":66804,
			"target":34962
		},
		{
			"buffer":0,
			"byteLength":36,
			"byteOffset":66900,
			"target":34963
		},
		{
			"buffer":0,
			"byteLength":2264496,
			"byteOffset":66936
		},
		{
			"buffer":0,
			"byteLength":18180,
			"byteOffset":2331432,
			"target":34962
		},
		{
			"buffer":0,
			"byteLength":18180,
			"byteOffset":2349612,
			"target":34962
		},
		{
			"buffer":0,
			"byteLength":12120,
			"byteOffset":2367792,
			"target":34962
		},
		{
			"buffer":0,
			"byteLength":144,
			"byteOffset":2379912,
			"target":34962
		},
		{
			"buffer":0,
			"byteLength":144,
			"byteOffset":2380056,
			"target":34962
		},
		{
			"buffer":0,
			"byteLength":96,
			"byteOffset":2380200,
			"target":34962
		},
		{
			"buffer":0,
			"byteLength":288,
			"byteOffset":2380296,
			"target":34962
		},
		{
			"buffer":0,
			"byteLength":288,
			"byteOffset":2380584,
			"target":34962
		},
		{
			"buffer":0,
			"byteLength":192,
			"byteOffset":2380872,
			"target":34962
		},
		{
			"buffer":0,
			"byteLength":72,
			"byteOffset":2381064,
			"target":34963
		},
		{
			"buffer":0,
			"byteLength":288,
			"byteOffset":2381136,
			"target":34962
		},
		{
			"buffer":0,
			"byteLength":288,
			"byteOffset":2381424,
			"target":34962
		},
		{
			"buffer":0,
			"byteLength":192,
			"byteOffset":2381712,
			"target":34962
		},
		{
			"buffer":0,
			"byteLength":72,
			"byteOffset":2381904,
			"target":34963
		},
		{
			"buffer":0,
			"byteLength":288,
			"byteOffset":2381976,
			"target":34962
		},
		{
			"buffer":0,
			"byteLength":288,
			"byteOffset":2382264,
			"target":34962
		},
		{
			"buffer":0,
			"byteLength":192,
			"byteOffset":2382552,
			"target":34962
		},
		{
			"buffer":0,
			"byteLength":288,
			"byteOffset":2382744,
			"target":34962
		},
		{
			"buffer":0,
			"byteLength":288,
			"byteOffset":2383032,
			"target":34962
		},
		{
			"buffer":0,
			"byteLength":192,
			"byteOffset":2383320,
			"target":34962
		},
		{
			"buffer":0,
			"byteLength":288,
			"byteOffset":2383512,
			"target":34962
		},
		{
			"buffer":0,
			"byteLength":288,
			"byteOffset":2383800,
			"target":34962
		},
		{
			"buffer":0,
			"byteLength":192,
			"byteOffset":2384088,
			"target":34962
		}
	],
	"samplers":[
		{
			"magFilter":9728,
			"minFilter":9984,
			"wrapS":33071,
			"wrapT":33071
		}
	],
	"buffers":[
		{
			"byteLength":2384280,
			"uri":"data:application/octet-stream;base64,"
		}
	]
}
